:FULLY-SPECIFIED
:FORCE-ALL-JOINTS-BE-3DOF
:DEGREES
408
root 4.57395 16.2146 -11.1885 1.45482 -38.7646 -1.33706
lfemur -28.6104 7.20339 -10.0892
ltibia 45.6372 0 0
lfoot -12.1367 14.3075 0
ltoes 1.87847 0 0
rfemur -42.1123 -25.4032 26.3474
rtibia 86.4246 0 0
rfoot 4.39799 -2.65659 0
rtoes 37.2843 0 0
lowerback 5.74433 4.74652 -0.773158
upperback 1.74504 6.20781 -2.24725
thorax -1.23925 3.09421 -2.28756
lowerneck -6.20433 2.48064 7.42973
upperneck 3.70586 2.66958 0.0952625
head 2.37439 1.44165 -1.14985
lclavicle -4.63996e-14 6.75867e-15 0
lhumerus -45.5415 -17.7355 94.187
lradius 51.3081 0 0
lwrist 19.2584 0 0
lhand -19.4344 2.54591 0
lfingers 7.12502 0 0
lthumb 6.88566 32.4092 0
rclavicle -4.63996e-14 6.75867e-15 0
rhumerus -45.3843 10.1722 -91.5384
rradius 64.4078 0 0
rwrist 7.78103 0 0
rhand -19.3093 -17.3474 0
rfingers 7.12502 0 0
rthumb 7.00653 -767.211 0
409
root 4.52786 16.1866 -11.0747 0.98123 -39.4125 -0.916238
lfemur -28.184 7.88324 -10.417
ltibia 46.4949 0 0
lfoot -12.9905 14.1439 0
ltoes 2.22126 0 0
rfemur -44.1633 -26.0582 26.2841
rtibia 87.7265 0 0
rfoot 4.16905 -1.98801 0
rtoes 36.926 0 0
lowerback 5.98378 4.79561 -0.967328
upperback 1.78493 6.25562 -2.36256
thorax -1.33699 3.11669 -2.32136
lowerneck -6.17674 2.69878 7.56694
upperneck 3.67865 2.96778 -0.198613
head 2.37852 1.58297 -1.25687
lclavicle -3.83654e-14 3.97569e-15 0
lhumerus -45.6312 -17.568 94.2249
lradius 51.211 0 0
lwrist 19.1887 0 0
lhand -20.0795 2.1807 0
lfingers 7.12502 0 0
lthumb 6.26306 32.0681 0
rclavicle -3.83654e-14 3.97569e-15 0
rhumerus -45.4494 10.0386 -91.329
rradius 65.0109 0 0
rwrist 7.73149 0 0
rhand -19.6001 -17.1966 0
rfingers 7.12502 0 0
rthumb 6.72587 -767.07 0
410
root 4.46566 16.1649 -10.9801 0.955813 -39.3856 -0.984932
lfemur -28.0049 8.28475 -10.2878
ltibia 47.1745 0 0
lfoot -13.7297 13.6967 0
ltoes 2.20221 0 0
rfemur -45.09 -25.3481 25.7791
rtibia 86.2332 0 0
rfoot 3.81435 -1.57086 0
rtoes 35.6972 0 0
lowerback 6.07639 4.70104 -0.813449
upperback 1.8065 6.13828 -2.34608
thorax -1.35682 3.05813 -2.38802
lowerneck -6.20401 2.90828 7.73502
upperneck 3.75735 3.24545 -0.484017
head 2.438 1.71743 -1.3679
lclavicle -3.73218e-14 1.07344e-14 0
lhumerus -45.4869 -17.5454 94.2359
lradius 50.8535 0 0
lwrist 18.6772 0 0
lhand -20.3679 1.85106 0
lfingers 7.12502 0 0
lthumb 5.98463 31.7456 0
rclavicle -3.73218e-14 1.07344e-14 0
rhumerus -45.3896 9.76591 -91.0897
rradius 65.3213 0 0
rwrist 8.05447 0 0
rhand -20.3066 -17.12 0
rfingers 7.12502 0 0
rthumb 6.04369 -767.009 0
411
root 4.40347 16.1433 -10.8856 0.930396 -39.3586 -1.05363
lfemur -27.8258 8.68626 -10.1586
ltibia 47.8542 0 0
lfoot -14.4688 13.2495 0
ltoes 2.18315 0 0
rfemur -46.0168 -24.638 25.2741
rtibia 84.7399 0 0
rfoot 3.45965 -1.15371 0
rtoes 34.4685 0 0
lowerback 6.169 4.60647 -0.659569
upperback 1.82806 6.02094 -2.3296
thorax -1.37664 2.99957 -2.45468
lowerneck -6.23128 3.11778 7.90311
upperneck 3.83605 3.52311 -0.769422
head 2.49749 1.85188 -1.47893
lclavicle -3.62782e-14 1.74931e-14 0
lhumerus -45.3427 -17.5229 94.2469
lradius 50.496 0 0
lwrist 18.1656 0 0
lhand -20.6562 1.52142 0
lfingers 7.12502 0 0
lthumb 5.70621 31.4231 0
rclavicle -3.62782e-14 1.74931e-14 0
rhumerus -45.3299 9.49321 -90.8504
rradius 65.6317 0 0
rwrist 8.37746 0 0
rhand -21.0131 -17.0435 0
rfingers 7.12502 0 0
rthumb 5.36152 -766.947 0
